<?xml version="1.0" encoding="UTF-8" standalone="no"?>
<!DOCTYPE svg PUBLIC "-//W3C//DTD SVG 1.1//EN"
 "http://www.w3.org/Graphics/SVG/1.1/DTD/svg11.dtd">
<!-- Generated by graphviz version 2.38.0 (20140413.2041)
 -->
<!-- Title: snakemake_dag Pages: 1 -->
<svg width="684pt" height="332pt"
 viewBox="0.00 0.00 683.50 332.00" xmlns="http://www.w3.org/2000/svg" xmlns:xlink="http://www.w3.org/1999/xlink">
<g id="graph0" class="graph" transform="scale(1 1) rotate(0) translate(4 328)">
<title>snakemake_dag</title>
<polygon fill="white" stroke="none" points="-4,4 -4,-328 679.5,-328 679.5,4 -4,4"/>
<!-- 0 -->
<g id="node1" class="node"><title>0</title>
<path fill="none" stroke="#5692d8" stroke-width="2" d="M480.5,-36C480.5,-36 446.5,-36 446.5,-36 440.5,-36 434.5,-30 434.5,-24 434.5,-24 434.5,-12 434.5,-12 434.5,-6 440.5,-0 446.5,-0 446.5,-0 480.5,-0 480.5,-0 486.5,-0 492.5,-6 492.5,-12 492.5,-12 492.5,-24 492.5,-24 492.5,-30 486.5,-36 480.5,-36"/>
<text text-anchor="middle" x="463.5" y="-15.5" font-family="sans" font-size="10.00">all_tools</text>
</g>
<!-- 1 -->
<g id="node2" class="node"><title>1</title>
<path fill="none" stroke="#56d8a2" stroke-width="2" d="M389.5,-108C389.5,-108 359.5,-108 359.5,-108 353.5,-108 347.5,-102 347.5,-96 347.5,-96 347.5,-84 347.5,-84 347.5,-78 353.5,-72 359.5,-72 359.5,-72 389.5,-72 389.5,-72 395.5,-72 401.5,-78 401.5,-84 401.5,-84 401.5,-96 401.5,-96 401.5,-102 395.5,-108 389.5,-108"/>
<text text-anchor="middle" x="374.5" y="-87.5" font-family="sans" font-size="10.00">filter</text>
</g>
<!-- 1&#45;&gt;0 -->
<g id="edge2" class="edge"><title>1&#45;&gt;0</title>
<path fill="none" stroke="grey" stroke-width="2" d="M396.5,-71.6966C407.709,-62.8807 421.502,-52.0321 433.654,-42.4742"/>
<polygon fill="grey" stroke="grey" stroke-width="2" points="436.057,-45.0375 441.753,-36.1043 431.729,-39.5354 436.057,-45.0375"/>
</g>
<!-- 2 -->
<g id="node3" class="node"><title>2</title>
<path fill="none" stroke="#56b1d8" stroke-width="2" d="M593.5,-108C593.5,-108 513.5,-108 513.5,-108 507.5,-108 501.5,-102 501.5,-96 501.5,-96 501.5,-84 501.5,-84 501.5,-78 507.5,-72 513.5,-72 513.5,-72 593.5,-72 593.5,-72 599.5,-72 605.5,-78 605.5,-84 605.5,-84 605.5,-96 605.5,-96 605.5,-102 599.5,-108 593.5,-108"/>
<text text-anchor="middle" x="553.5" y="-87.5" font-family="sans" font-size="10.00">pindel_merge_vcf</text>
</g>
<!-- 2&#45;&gt;0 -->
<g id="edge1" class="edge"><title>2&#45;&gt;0</title>
<path fill="none" stroke="grey" stroke-width="2" d="M531.253,-71.6966C519.918,-62.8807 505.97,-52.0321 493.681,-42.4742"/>
<polygon fill="grey" stroke="grey" stroke-width="2" points="495.534,-39.481 485.491,-36.1043 491.236,-45.0065 495.534,-39.481"/>
</g>
<!-- 3 -->
<g id="node4" class="node"><title>3</title>
<path fill="none" stroke="#d8d356" stroke-width="2" d="M129,-180C129,-180 12,-180 12,-180 6,-180 0,-174 0,-168 0,-168 0,-156 0,-156 0,-150 6,-144 12,-144 12,-144 129,-144 129,-144 135,-144 141,-150 141,-156 141,-156 141,-168 141,-168 141,-174 135,-180 129,-180"/>
<text text-anchor="middle" x="70.5" y="-159.5" font-family="sans" font-size="10.00">varscan_merge_indel_vcf</text>
</g>
<!-- 3&#45;&gt;1 -->
<g id="edge4" class="edge"><title>3&#45;&gt;1</title>
<path fill="none" stroke="grey" stroke-width="2" d="M141.008,-144.765C202.415,-130.625 289.015,-110.684 337.644,-99.4866"/>
<polygon fill="grey" stroke="grey" stroke-width="2" points="338.462,-102.89 347.422,-97.2351 336.891,-96.0683 338.462,-102.89"/>
</g>
<!-- 4 -->
<g id="node5" class="node"><title>4</title>
<path fill="none" stroke="#88d856" stroke-width="2" d="M281.5,-180C281.5,-180 171.5,-180 171.5,-180 165.5,-180 159.5,-174 159.5,-168 159.5,-168 159.5,-156 159.5,-156 159.5,-150 165.5,-144 171.5,-144 171.5,-144 281.5,-144 281.5,-144 287.5,-144 293.5,-150 293.5,-156 293.5,-156 293.5,-168 293.5,-168 293.5,-174 287.5,-180 281.5,-180"/>
<text text-anchor="middle" x="226.5" y="-159.5" font-family="sans" font-size="10.00">varscan_merge_snp_vcf</text>
</g>
<!-- 4&#45;&gt;1 -->
<g id="edge6" class="edge"><title>4&#45;&gt;1</title>
<path fill="none" stroke="grey" stroke-width="2" d="M262.705,-143.876C285.72,-132.99 315.403,-118.951 338.399,-108.075"/>
<polygon fill="grey" stroke="grey" stroke-width="2" points="339.944,-111.216 347.488,-103.776 336.951,-104.888 339.944,-111.216"/>
</g>
<!-- 5 -->
<g id="node6" class="node"><title>5</title>
<path fill="none" stroke="#9fd856" stroke-width="2" d="M425,-180C425,-180 324,-180 324,-180 318,-180 312,-174 312,-168 312,-168 312,-156 312,-156 312,-150 318,-144 324,-144 324,-144 425,-144 425,-144 431,-144 437,-150 437,-156 437,-156 437,-168 437,-168 437,-174 431,-180 425,-180"/>
<text text-anchor="middle" x="374.5" y="-159.5" font-family="sans" font-size="10.00">gatk_merge_indel_vcf</text>
</g>
<!-- 5&#45;&gt;1 -->
<g id="edge5" class="edge"><title>5&#45;&gt;1</title>
<path fill="none" stroke="grey" stroke-width="2" d="M374.5,-143.697C374.5,-135.983 374.5,-126.712 374.5,-118.112"/>
<polygon fill="grey" stroke="grey" stroke-width="2" points="378,-118.104 374.5,-108.104 371,-118.104 378,-118.104"/>
</g>
<!-- 6 -->
<g id="node7" class="node"><title>6</title>
<path fill="none" stroke="#56d882" stroke-width="2" d="M562.5,-180C562.5,-180 468.5,-180 468.5,-180 462.5,-180 456.5,-174 456.5,-168 456.5,-168 456.5,-156 456.5,-156 456.5,-150 462.5,-144 468.5,-144 468.5,-144 562.5,-144 562.5,-144 568.5,-144 574.5,-150 574.5,-156 574.5,-156 574.5,-168 574.5,-168 574.5,-174 568.5,-180 562.5,-180"/>
<text text-anchor="middle" x="515.5" y="-159.5" font-family="sans" font-size="10.00">gatk_merge_snp_vcf</text>
</g>
<!-- 6&#45;&gt;1 -->
<g id="edge3" class="edge"><title>6&#45;&gt;1</title>
<path fill="none" stroke="grey" stroke-width="2" d="M481.008,-143.876C459.702,-133.299 432.398,-119.744 410.77,-109.007"/>
<polygon fill="grey" stroke="grey" stroke-width="2" points="412.093,-105.755 401.579,-104.444 408.98,-112.025 412.093,-105.755"/>
</g>
<!-- 7 -->
<g id="node8" class="node"><title>7</title>
<path fill="none" stroke="#68d856" stroke-width="2" d="M663,-180C663,-180 608,-180 608,-180 602,-180 596,-174 596,-168 596,-168 596,-156 596,-156 596,-150 602,-144 608,-144 608,-144 663,-144 663,-144 669,-144 675,-150 675,-156 675,-156 675,-168 675,-168 675,-174 669,-180 663,-180"/>
<text text-anchor="middle" x="635.5" y="-159.5" font-family="sans" font-size="10.00">index_pindel</text>
</g>
<!-- 7&#45;&gt;2 -->
<g id="edge7" class="edge"><title>7&#45;&gt;2</title>
<path fill="none" stroke="grey" stroke-width="2" d="M615.23,-143.697C605.002,-134.965 592.439,-124.24 581.322,-114.75"/>
<polygon fill="grey" stroke="grey" stroke-width="2" points="583.415,-111.935 573.537,-108.104 578.87,-117.259 583.415,-111.935"/>
</g>
<!-- 8 -->
<g id="node9" class="node"><title>8</title>
<path fill="none" stroke="#d8b456" stroke-width="2" d="M116.5,-252C116.5,-252 24.5,-252 24.5,-252 18.5,-252 12.5,-246 12.5,-240 12.5,-240 12.5,-228 12.5,-228 12.5,-222 18.5,-216 24.5,-216 24.5,-216 116.5,-216 116.5,-216 122.5,-216 128.5,-222 128.5,-228 128.5,-228 128.5,-240 128.5,-240 128.5,-246 122.5,-252 116.5,-252"/>
<text text-anchor="middle" x="70.5" y="-231.5" font-family="sans" font-size="10.00">varscan_indel_index</text>
</g>
<!-- 8&#45;&gt;3 -->
<g id="edge8" class="edge"><title>8&#45;&gt;3</title>
<path fill="none" stroke="grey" stroke-width="2" d="M70.5,-215.697C70.5,-207.983 70.5,-198.712 70.5,-190.112"/>
<polygon fill="grey" stroke="grey" stroke-width="2" points="74.0001,-190.104 70.5,-180.104 67.0001,-190.104 74.0001,-190.104"/>
</g>
<!-- 9 -->
<g id="node10" class="node"><title>9</title>
<path fill="none" stroke="#d89556" stroke-width="2" d="M267.5,-252C267.5,-252 181.5,-252 181.5,-252 175.5,-252 169.5,-246 169.5,-240 169.5,-240 169.5,-228 169.5,-228 169.5,-222 175.5,-216 181.5,-216 181.5,-216 267.5,-216 267.5,-216 273.5,-216 279.5,-222 279.5,-228 279.5,-228 279.5,-240 279.5,-240 279.5,-246 273.5,-252 267.5,-252"/>
<text text-anchor="middle" x="224.5" y="-231.5" font-family="sans" font-size="10.00">varscan_snp_index</text>
</g>
<!-- 9&#45;&gt;4 -->
<g id="edge9" class="edge"><title>9&#45;&gt;4</title>
<path fill="none" stroke="grey" stroke-width="2" d="M224.994,-215.697C225.215,-207.983 225.48,-198.712 225.725,-190.112"/>
<polygon fill="grey" stroke="grey" stroke-width="2" points="229.224,-190.2 226.011,-180.104 222.227,-190 229.224,-190.2"/>
</g>
<!-- 10 -->
<g id="node11" class="node"><title>10</title>
<path fill="none" stroke="#d87556" stroke-width="2" d="M423,-252C423,-252 310,-252 310,-252 304,-252 298,-246 298,-240 298,-240 298,-228 298,-228 298,-222 304,-216 310,-216 310,-216 423,-216 423,-216 429,-216 435,-222 435,-228 435,-228 435,-240 435,-240 435,-246 429,-252 423,-252"/>
<text text-anchor="middle" x="366.5" y="-231.5" font-family="sans" font-size="10.00">gatk_selectvariant_indel</text>
</g>
<!-- 10&#45;&gt;5 -->
<g id="edge10" class="edge"><title>10&#45;&gt;5</title>
<path fill="none" stroke="grey" stroke-width="2" d="M368.478,-215.697C369.359,-207.983 370.419,-198.712 371.401,-190.112"/>
<polygon fill="grey" stroke="grey" stroke-width="2" points="374.887,-190.437 372.545,-180.104 367.932,-189.642 374.887,-190.437"/>
</g>
<!-- 11 -->
<g id="node12" class="node"><title>11</title>
<path fill="none" stroke="#d85656" stroke-width="2" d="M571.5,-252C571.5,-252 465.5,-252 465.5,-252 459.5,-252 453.5,-246 453.5,-240 453.5,-240 453.5,-228 453.5,-228 453.5,-222 459.5,-216 465.5,-216 465.5,-216 571.5,-216 571.5,-216 577.5,-216 583.5,-222 583.5,-228 583.5,-228 583.5,-240 583.5,-240 583.5,-246 577.5,-252 571.5,-252"/>
<text text-anchor="middle" x="518.5" y="-231.5" font-family="sans" font-size="10.00">gatk_selectvariant_snp</text>
</g>
<!-- 11&#45;&gt;6 -->
<g id="edge11" class="edge"><title>11&#45;&gt;6</title>
<path fill="none" stroke="grey" stroke-width="2" d="M517.758,-215.697C517.428,-207.983 517.031,-198.712 516.662,-190.112"/>
<polygon fill="grey" stroke="grey" stroke-width="2" points="520.158,-189.945 516.233,-180.104 513.165,-190.245 520.158,-189.945"/>
</g>
<!-- 12 -->
<g id="node13" class="node"><title>12</title>
<path fill="none" stroke="#5673d8" stroke-width="2" d="M663.5,-252C663.5,-252 613.5,-252 613.5,-252 607.5,-252 601.5,-246 601.5,-240 601.5,-240 601.5,-228 601.5,-228 601.5,-222 607.5,-216 613.5,-216 613.5,-216 663.5,-216 663.5,-216 669.5,-216 675.5,-222 675.5,-228 675.5,-228 675.5,-240 675.5,-240 675.5,-246 669.5,-252 663.5,-252"/>
<text text-anchor="middle" x="638.5" y="-231.5" font-family="sans" font-size="10.00">filter_pindel</text>
</g>
<!-- 12&#45;&gt;7 -->
<g id="edge12" class="edge"><title>12&#45;&gt;7</title>
<path fill="none" stroke="grey" stroke-width="2" d="M637.758,-215.697C637.428,-207.983 637.031,-198.712 636.662,-190.112"/>
<polygon fill="grey" stroke="grey" stroke-width="2" points="640.158,-189.945 636.233,-180.104 633.165,-190.245 640.158,-189.945"/>
</g>
<!-- 13 -->
<g id="node14" class="node"><title>13</title>
<path fill="none" stroke="#56d8c1" stroke-width="2" d="M123.5,-324C123.5,-324 17.5,-324 17.5,-324 11.5,-324 5.5,-318 5.5,-312 5.5,-312 5.5,-300 5.5,-300 5.5,-294 11.5,-288 17.5,-288 17.5,-288 123.5,-288 123.5,-288 129.5,-288 135.5,-294 135.5,-300 135.5,-300 135.5,-312 135.5,-312 135.5,-318 129.5,-324 123.5,-324"/>
<text text-anchor="middle" x="70.5" y="-303.5" font-family="sans" font-size="10.00">varscan_mpileup2indel</text>
</g>
<!-- 13&#45;&gt;8 -->
<g id="edge13" class="edge"><title>13&#45;&gt;8</title>
<path fill="none" stroke="grey" stroke-width="2" d="M70.5,-287.697C70.5,-279.983 70.5,-270.712 70.5,-262.112"/>
<polygon fill="grey" stroke="grey" stroke-width="2" points="74.0001,-262.104 70.5,-252.104 67.0001,-262.104 74.0001,-262.104"/>
</g>
<!-- 14 -->
<g id="node15" class="node"><title>14</title>
<path fill="none" stroke="#bed856" stroke-width="2" d="M274,-324C274,-324 175,-324 175,-324 169,-324 163,-318 163,-312 163,-312 163,-300 163,-300 163,-294 169,-288 175,-288 175,-288 274,-288 274,-288 280,-288 286,-294 286,-300 286,-300 286,-312 286,-312 286,-318 280,-324 274,-324"/>
<text text-anchor="middle" x="224.5" y="-303.5" font-family="sans" font-size="10.00">varscan_mpileup2snp</text>
</g>
<!-- 14&#45;&gt;9 -->
<g id="edge14" class="edge"><title>14&#45;&gt;9</title>
<path fill="none" stroke="grey" stroke-width="2" d="M224.5,-287.697C224.5,-279.983 224.5,-270.712 224.5,-262.112"/>
<polygon fill="grey" stroke="grey" stroke-width="2" points="228,-262.104 224.5,-252.104 221,-262.104 228,-262.104"/>
</g>
<!-- 15 -->
<g id="node16" class="node"><title>15</title>
<path fill="none" stroke="#56d0d8" stroke-width="2" d="M490,-324C490,-324 395,-324 395,-324 389,-324 383,-318 383,-312 383,-312 383,-300 383,-300 383,-294 389,-288 395,-288 395,-288 490,-288 490,-288 496,-288 502,-294 502,-300 502,-300 502,-312 502,-312 502,-318 496,-324 490,-324"/>
<text text-anchor="middle" x="442.5" y="-303.5" font-family="sans" font-size="10.00">gatk_haplotypecaller</text>
</g>
<!-- 15&#45;&gt;10 -->
<g id="edge15" class="edge"><title>15&#45;&gt;10</title>
<path fill="none" stroke="grey" stroke-width="2" d="M423.713,-287.697C414.326,-279.05 402.816,-268.449 392.587,-259.027"/>
<polygon fill="grey" stroke="grey" stroke-width="2" points="394.797,-256.305 385.07,-252.104 390.055,-261.454 394.797,-256.305"/>
</g>
<!-- 15&#45;&gt;11 -->
<g id="edge16" class="edge"><title>15&#45;&gt;11</title>
<path fill="none" stroke="grey" stroke-width="2" d="M461.287,-287.697C470.674,-279.05 482.184,-268.449 492.413,-259.027"/>
<polygon fill="grey" stroke="grey" stroke-width="2" points="494.945,-261.454 499.93,-252.104 490.203,-256.305 494.945,-261.454"/>
</g>
<!-- 16 -->
<g id="node17" class="node"><title>16</title>
<path fill="none" stroke="#56d863" stroke-width="2" d="M661,-324C661,-324 616,-324 616,-324 610,-324 604,-318 604,-312 604,-312 604,-300 604,-300 604,-294 610,-288 616,-288 616,-288 661,-288 661,-288 667,-288 673,-294 673,-300 673,-300 673,-312 673,-312 673,-318 667,-324 661,-324"/>
<text text-anchor="middle" x="638.5" y="-303.5" font-family="sans" font-size="10.00">pindel_call</text>
</g>
<!-- 16&#45;&gt;12 -->
<g id="edge17" class="edge"><title>16&#45;&gt;12</title>
<path fill="none" stroke="grey" stroke-width="2" d="M638.5,-287.697C638.5,-279.983 638.5,-270.712 638.5,-262.112"/>
<polygon fill="grey" stroke="grey" stroke-width="2" points="642,-262.104 638.5,-252.104 635,-262.104 642,-262.104"/>
</g>
</g>
</svg>
